<?xml version="1.0" encoding="UTF-8"?>
<svg width="359px" height="178px" viewBox="0 0 359 178" version="1.1" xmlns="http://www.w3.org/2000/svg" xmlns:xlink="http://www.w3.org/1999/xlink">
    <!-- Generator: Sketch 46 (44423) - http://www.bohemiancoding.com/sketch -->
    <title>formap</title>
    <desc>Created with Sketch.</desc>
    <defs></defs>
    <g id="Page-1" stroke="none" stroke-width="1" fill="none" fill-rule="evenodd">
        <g id="formap">
            <text id="form-Map-}" font-family="FiraSans-Regular, Fira Sans" font-size="54" font-weight="normal" line-spacing="47">
                <tspan x="197" y="98" fill="#3F3D56"> </tspan>
                <tspan x="212.498" y="100.537842" font-family="FiraSans-Light, Fira Sans" font-weight="300" fill="#6C63FF">form</tspan>
                <tspan x="365.966" y="115.616211" fill="#3F3D56"></tspan>
                <tspan x="197" y="145" fill="#3F3D56">  Map </tspan>
                <tspan x="344.582" y="147.537842" font-family="FiraSans-Light, Fira Sans" font-weight="300" fill="#6C63FF">}</tspan>
            </text>
            <g id="undraw_task_31wc" fill-rule="nonzero">
                <path d="M182.457915,82.1516021 C182.457915,114.331479 163.341264,125.567491 139.759682,125.567491 C116.178099,125.567491 97.0614485,114.331479 97.0614485,82.1516021 C97.0614485,49.9717248 139.759682,9.03384977 139.759682,9.03384977 C139.759682,9.03384977 182.457915,49.9717248 182.457915,82.1516021 Z" id="Shape" fill="#F2F2F2"></path>
                <polygon id="Shape" fill="#3F3D56" points="138.204249 120.64495 138.641387 93.7132867 156.840571 60.3949448 138.710094 89.4884818 138.906639 77.3789717 151.449355 53.2735074 138.958588 74.174253 138.958588 74.1744926 139.312177 52.3947672 152.743295 33.2038277 139.367717 48.9698843 139.58868 9.03391925 138.200418 61.9020754 138.314611 59.7210363 124.659178 38.8042396 138.095563 63.9077497 136.823169 88.2317012 136.785344 87.5860619 121.04309 65.5741938 136.737704 89.8670013 136.578505 92.9090525 136.550017 92.9548102 136.562944 93.2044415 133.334918 154.916778 137.647891 154.916778 138.165467 123.041122 153.821538 98.8079677"></polygon>
                <path d="M248.486692,165.629855 C248.486692,168.051901 241.453243,170.313435 229.301445,172.218011 C207.281727,175.672601 168.458749,177.965279 124.242161,177.965279 C55.6262514,177.965279 1.19698398e-05,172.443207 1.19698398e-05,165.629855 C1.19698398e-05,164.688348 1.06772168,163.766006 3.0906246,162.884391 C5.37207606,161.885387 8.87205721,160.934297 13.4253962,160.045495 C22.8121446,158.212789 36.680389,156.646006 53.5961785,155.481699 C73.2315037,154.132938 96.9772718,153.330367 122.592729,153.299223 C123.140948,153.296827 123.690758,153.296028 124.242161,153.296827 C127.327986,153.296827 130.386679,153.308007 133.41824,153.330367 C134.842651,153.339959 136.260678,153.352736 137.672321,153.368698 C152.759107,153.529209 167.036732,153.958038 180.012038,154.604875 C180.591379,154.633624 181.168325,154.664768 181.742877,154.693516 C181.939183,154.703099 182.135488,154.715077 182.331793,154.72466 C182.384461,154.727056 182.437128,154.729451 182.489795,154.734243 C185.039371,154.868402 187.533088,155.011345 189.970945,155.163072 C190.77053,155.210986 191.562934,155.261295 192.348155,155.314001 C199.977745,155.809909 207.020785,156.387271 213.355224,157.036504 C214.437298,157.146696 215.498627,157.259294 216.539213,157.374297 C224.554218,158.253516 231.302795,159.25252 236.502486,160.337769 C244.187125,161.940481 248.486692,163.734852 248.486692,165.629855 Z" id="Shape" fill="#3F3D56"></path>
                <ellipse id="Oval" fill="#000000" opacity="0.1" cx="180.256975" cy="164.859067" rx="27.0715594" ry="6.27719995"></ellipse>
                <path d="M248.486692,165.629855 C248.486692,168.051901 241.453243,170.313435 229.301445,172.218011 C220.113396,171.214216 213.752623,169.046114 213.752623,166.535427 C213.752623,163.409048 223.606195,160.816908 236.502479,160.337769 C244.187125,161.940481 248.486692,163.734852 248.486692,165.629855 Z" id="Shape" fill="#000000" opacity="0.1"></path>
                <path d="M134.697519,162.766667 C134.697519,166.903003 105.233538,170.255256 68.889418,170.255256 C32.8864405,170.255256 3.63595614,166.966887 3.09011468,162.883394 C10.0781071,159.830697 28.4757509,157.209674 53.5950893,155.480703 C58.5031808,155.348556 63.6247736,155.278075 68.889418,155.278075 C105.233538,155.27808 134.697519,158.630318 134.697519,162.766667 Z" id="Shape" fill="#000000" opacity="0.1"></path>
                <rect id="Rectangle-path" fill="#3F3D56" x="13.4257338" y="0" width="109.166617" height="163.647678"></rect>
                <rect id="Rectangle-path" fill="#2F2E41" x="20.0285536" y="56.8251704" width="102.563797" height="50.2175924"></rect>
                <rect id="Rectangle-path" fill="#3F3D56" x="61.4062213" y="57.9264322" width="101.463328" height="47.7948135"></rect>
                <rect id="Rectangle-path" fill="#6C63FF" x="67.6238779" y="64.9745159" width="22.6696795" height="8.14934549"></rect>
                <rect id="Rectangle-path" fill="#6C63FF" x="73.2362749" y="79.2909337" width="83.4156205" height="2.202526"></rect>
                <rect id="Rectangle-path" fill="#6C63FF" x="73.2362749" y="85.0175003" width="83.4156205" height="2.202526"></rect>
                <rect id="Rectangle-path" fill="#6C63FF" x="73.2362749" y="90.7440694" width="83.4156205" height="2.202526"></rect>
                <rect id="Rectangle-path" fill="#6C63FF" x="73.2362749" y="96.470636" width="83.4156205" height="2.202526"></rect>
                <rect id="Rectangle-path" fill="#F2F2F2" x="20.6888339" y="18.501217" width="22.6696795" height="8.14934549"></rect>
                <rect id="Rectangle-path" fill="#F2F2F2" x="26.3012308" y="32.8176372" width="83.4156205" height="2.202526"></rect>
                <rect id="Rectangle-path" fill="#F2F2F2" x="26.3012308" y="38.5442038" width="83.4156205" height="2.202526"></rect>
                <rect id="Rectangle-path" fill="#F2F2F2" x="26.3012308" y="44.2707705" width="83.4156205" height="2.202526"></rect>
                <rect id="Rectangle-path" fill="#F2F2F2" x="26.3012308" y="49.9973395" width="83.4156205" height="2.202526"></rect>
                <rect id="Rectangle-path" fill="#F2F2F2" x="21.5692108" y="112.108571" width="22.6696795" height="8.14934549"></rect>
                <rect id="Rectangle-path" fill="#F2F2F2" x="27.1816077" y="126.424989" width="83.4156205" height="2.202526"></rect>
                <rect id="Rectangle-path" fill="#F2F2F2" x="27.1816077" y="132.151555" width="83.4156205" height="2.202526"></rect>
                <rect id="Rectangle-path" fill="#F2F2F2" x="27.1816077" y="137.878124" width="83.4156205" height="2.202526"></rect>
                <rect id="Rectangle-path" fill="#F2F2F2" x="27.1816077" y="143.604691" width="83.4156205" height="2.202526"></rect>
                <path d="M173.09892,33.6495297 C173.09892,33.6495297 177.624371,39.4519416 177.058689,43.5560873 C176.493006,47.6602331 186.39243,37.895201 186.39243,37.895201 C186.39243,37.895201 182.998341,30.8190877 184.836805,27.422553 C186.67527,24.0260184 173.09892,33.6495297 173.09892,33.6495297 Z" id="Shape" fill="#FFB9B9"></path>
                <path d="M188.937998,151.113002 C188.937998,151.113002 194.877653,157.623025 193.887711,159.038247 C192.89777,160.453469 175.503067,165.831314 173.523183,165.54827 C171.5433,165.265226 170.553356,163.850004 171.260458,163.425446 C171.967559,163.000889 176.493011,160.595002 176.493011,160.595002 L180.311361,156.207812 C180.311361,156.207812 183.139767,154.651067 183.139767,153.801933 C183.139767,152.952798 188.937998,151.113002 188.937998,151.113002 Z" id="Shape" fill="#2F2E41"></path>
                <path d="M178.897156,158.330636 C178.897156,158.330636 176.634432,162.010214 176.210166,162.151738 C175.7859,162.293261 178.331461,167.388059 178.331461,167.388059 L184.271135,165.548272 L187.523802,162.859346 L186.816701,159.179768 L178.897156,158.330636 Z" id="Shape" fill="#FFB9B9"></path>
                <path d="M172.81608,88.135598 L169.987673,100.731079 C169.987673,100.731079 160.229669,122.667028 167.017846,126.488134 L181.86698,154.934116 L189.786521,151.39606 L176.493008,122.242475 L182.574082,88.7017003 L172.81608,88.135598 Z" id="Shape" fill="#D0CDE1"></path>
                <path d="M172.81608,88.135598 L169.987673,100.731079 C169.987673,100.731079 160.229669,122.667028 167.017846,126.488134 L181.86698,154.934116 L189.786521,151.39606 L176.493008,122.242475 L182.574082,88.7017003 L172.81608,88.135598 Z" id="Shape" fill="#000000" opacity="0.1"></path>
                <path d="M173.806021,90.1169105 L172.371161,90.1169105 C172.259341,94.4695125 172.502738,98.8239862 173.098927,103.136956 C174.088868,110.354591 176.634437,126.912694 176.634437,126.912694 C176.634437,126.912694 176.351594,130.026185 177.200117,131.01684 C178.04864,132.007495 178.190059,130.733796 178.33148,132.998153 C178.472901,135.262509 179.816394,151.005859 179.816394,151.005859 C179.816394,151.005859 180.735625,154.226502 179.745683,154.934113 C178.755741,155.641724 176.775856,159.462826 178.190059,160.028914 C179.604262,160.595002 189.362267,161.302615 189.786528,160.878048 C190.21079,160.453481 189.786528,133.847299 189.786528,133.847299 C189.786528,133.847299 189.503686,128.469447 189.220845,128.186408 C188.938005,127.903369 187.665221,124.082262 188.089483,123.233128 C188.513744,122.383993 188.230904,119.836595 188.230904,119.412028 C188.230904,118.987461 186.95812,119.412028 188.089483,117.572239 C189.220845,115.73245 189.362267,101.014135 189.362267,101.014135 C189.362267,101.014135 195.44334,91.6736654 193.604876,89.2677882 L173.806021,90.1169105 Z" id="Shape" fill="#D0CDE1"></path>
                <ellipse id="Oval" fill="#FFB9B9" cx="177.058689" cy="26.4318956" rx="9.33374351" ry="9.34046974"></ellipse>
                <path d="M186.39243,36.3384532 C186.39243,36.3384532 180.735615,37.7536754 178.472892,41.1502029 L176.493006,41.57477 L176.493006,43.5560801 C176.493006,43.5560801 172.816077,55.3024271 173.6646,60.3972279 C174.513123,65.4920287 173.6646,75.3985792 172.250394,78.0875052 C170.836189,80.7764311 170.41193,81.3425167 171.119034,82.4746949 C171.826138,83.6068731 172.816077,87.4279749 172.108976,89.126241 C171.401874,90.8245072 172.108976,92.5227757 178.614311,92.9473429 C185.119646,93.37191 194.311968,93.37191 194.311968,91.1075535 C194.311968,88.8431971 193.746288,82.4746949 194.311968,80.7764287 C194.877648,79.0781626 195.160491,77.9459844 194.87765,76.389239 C194.59481,74.8324937 195.443331,57.425258 195.443331,57.425258 C195.443331,57.425258 195.584754,40.0180247 186.39243,36.3384532 Z" id="Shape" fill="#2F2E41"></path>
                <path d="M173.09892,80.0688296 L165.3208,91.6736534 C165.3208,91.6736534 157.118422,99.1743291 160.08825,102.570869 C163.058077,105.967408 170.836187,92.6643109 170.836187,92.6643109 L179.321407,83.0407972 L173.09892,80.0688296 Z" id="Shape" fill="#FFB9B9"></path>
                <path d="M178.048633,162.859346 C178.048633,162.859346 177.76579,161.019557 176.775849,161.019557 C175.785907,161.019557 169.139151,165.548272 169.139151,165.548272 C169.139151,165.548272 160.37109,166.53893 163.765171,168.378719 C167.159253,170.218508 187.948049,170.501543 188.089468,169.793941 C188.230887,169.08634 188.51373,162.10828 187.523788,162.130009 C186.533846,162.151738 178.614306,163.708483 178.614306,163.708483 L178.048633,162.859346 Z" id="Shape" fill="#2F2E41"></path>
                <path d="M177.722641,21.6063779 C177.391069,21.7699368 177.025505,21.8525947 176.655872,21.8475858 C176.274396,21.8692836 175.819049,21.8456693 175.616172,21.5216638 C175.520217,21.3084401 175.475748,21.0756125 175.486359,20.8420056 C175.405439,20.2358465 175.080289,19.6891851 174.58643,19.3289927 C174.092572,18.9688003 173.472984,18.8264232 172.871576,18.9349309 C172.91208,19.402707 173.054291,19.8559653 173.288249,20.262957 C172.450272,20.5474738 171.527637,20.4245805 170.793203,19.9306217 L170.64955,21.8369633 C170.142221,22.0795872 169.492306,22.1301962 169.049875,21.7829405 C168.607443,21.4356847 168.572075,20.6206963 169.072488,20.3640912 C168.454366,20.2351071 167.69837,19.9579685 167.652892,19.3277311 C167.611397,18.7526713 168.22149,18.3317768 168.333825,17.7662854 C168.425447,17.3050714 168.172782,16.8037774 168.351583,16.3689087 C168.586474,15.7976222 169.439318,15.6509626 169.61042,15.0574105 C169.69756,14.7551267 169.572181,14.4317944 169.602108,14.1186126 C169.680472,13.2986076 170.710633,12.9581556 171.532465,13.0047615 C172.354297,13.0513673 173.251267,13.2697682 173.949449,12.8334263 C174.287972,12.6218602 174.524405,12.2832266 174.821866,12.0169309 C175.665008,11.2932667 176.875297,11.1879483 177.830604,11.7551128 C178.161123,11.9607974 178.44951,12.2458346 178.818116,12.3708515 C179.572456,12.6266923 180.359463,12.1426162 181.14811,12.0310272 C181.732504,11.9308558 182.330543,12.1042153 182.770955,12.5014575 C183.204843,12.9189123 183.304053,13.5761346 183.012746,14.1032179 C183.475435,14.0250105 183.965734,13.9493641 184.401798,14.1228027 C184.837861,14.2962413 185.171063,14.8187515 184.969326,15.2427222 C184.894344,15.3538864 184.835128,15.4749187 184.793369,15.6023612 C184.752432,15.8490218 184.989794,16.0599051 185.22945,16.1306355 C185.469105,16.2013659 185.729214,16.1881321 185.963854,16.2740704 C186.933218,16.6290954 186.70062,18.179909 187.46358,18.8756926 C187.725379,19.0661597 188.001947,19.2354183 188.290652,19.381857 C189.071424,19.9235508 189.36727,20.937887 189.000265,21.8148295 C188.847336,22.1537339 188.591091,22.477162 188.621961,22.8477326 C188.665258,23.3674783 189.22176,23.6521657 189.612305,23.9975192 C190.34295,24.671835 190.559158,25.7390085 190.148652,26.6448535 C189.789657,27.3942599 189.012194,27.9623506 188.93327,28.7896577 C188.898965,29.1492704 189.006947,29.5082962 189.000799,29.8694924 C188.954624,30.5458725 188.602797,31.1642779 188.045144,31.5492447 C187.491246,31.9248202 186.867284,32.1846334 186.210646,32.3131162 C185.902361,32.386961 185.534496,32.5025724 185.459884,32.8108813 C185.371422,33.1764282 185.778985,33.5090702 185.736811,33.8828079 C185.710381,34.0451973 185.620694,34.1904768 185.487407,34.2868032 C184.935722,34.718567 184.062644,34.3484228 183.725303,33.734215 C183.387962,33.1200072 183.431084,32.3756989 183.483383,31.6767938 L183.673603,29.135373 C183.732791,28.3446098 183.727113,27.4055652 183.082949,26.9437498 C182.370801,26.4331941 181.33364,26.8465278 180.528288,26.501524 C179.689147,26.1420455 179.388125,25.0899816 179.421983,24.1771459 C179.455841,23.2643101 179.717192,22.3500609 179.566926,21.4489305 C179.380632,20.3322452 178.388083,19.5817273 177.385899,20.3053632 C178.26669,20.1852791 178.418769,21.1968653 177.722641,21.6063779 Z" id="Shape" fill="#2F2E41"></path>
                <path d="M185.543909,43.1315202 C185.543909,43.1315202 179.887097,45.3958766 179.887097,50.2076263 C179.887097,55.019376 180.169937,61.3878854 179.179996,63.5107186 C178.190054,65.6335519 177.341531,66.341163 177.907211,68.0394315 C178.472892,69.7377001 179.462836,69.4546537 177.907211,70.7283575 C176.351587,72.0020613 176.493008,69.8792256 176.351587,72.0020589 C176.210166,74.1248922 177.76579,74.4079361 176.351587,75.3985936 C174.937384,76.389251 171.260455,80.3518712 172.81608,81.6255726 C174.371704,82.899274 178.472894,87.0034245 179.887097,85.446672 C181.3013,83.8899195 182.008392,79.9273041 183.988287,80.210348 C185.968183,80.493392 186.251011,80.6349152 185.968171,79.219693 C185.685331,77.8044708 184.412546,77.8044708 186.109592,77.3799037 C187.806638,76.9553365 188.513737,77.9460059 187.948056,76.5307718 C187.382376,75.1155376 186.958112,74.5494593 188.089475,72.9927139 C189.220838,71.4359686 189.786521,71.0114038 189.6451,69.4546585 C189.503678,67.8979131 192.756348,53.8872049 192.756348,53.8872049 C192.756348,53.8872049 193.74629,41.999342 185.543909,43.1315202 Z" id="Shape" fill="#000000" opacity="0.1"></path>
                <path d="M183.988287,42.8484762 C183.988287,42.8484762 178.331461,45.1128327 178.331461,49.9245895 C178.331461,54.7363464 178.614301,61.1048462 177.624359,63.2276819 C176.634418,65.3505175 175.785895,66.0581262 176.351575,67.7563924 C176.917255,69.4546585 177.907199,69.1716169 176.351575,70.4453183 C174.795951,71.7190197 174.937372,69.5961841 174.795953,71.7190197 C174.654534,73.8418554 176.210156,74.124897 174.795953,75.115552 C173.38175,76.1062071 169.704819,80.068832 171.260443,81.342531 C172.816068,82.61623 176.917258,86.720383 178.331461,85.1636328 C179.745664,83.6068827 180.452756,79.6442649 182.432651,79.9273089 C184.412546,80.2103528 184.695377,80.351876 184.412534,78.9366538 C184.129692,77.5214316 182.856913,77.5214316 184.553956,77.0968645 C186.250999,76.6722974 186.9581,77.6629524 186.39242,76.2477302 C185.82674,74.832508 185.402479,74.2664201 186.533841,72.7096748 C187.665204,71.1529294 188.230885,70.7283623 188.089463,69.1716193 C187.948042,67.6148764 191.200712,53.6041658 191.200712,53.6041658 C191.200712,53.6041658 192.190666,41.716298 183.988287,42.8484762 Z" id="Shape" fill="#000000" opacity="0.1"></path>
                <path d="M184.695389,42.4239091 C184.695389,42.4239091 179.038574,44.6882655 179.038574,49.5000224 C179.038574,54.3117792 179.321415,60.6802815 178.331473,62.8031147 C177.341531,64.925948 176.493008,65.6335591 177.058689,67.3318276 C177.624369,69.0300962 178.614313,68.7470498 177.058689,70.0207536 C175.503064,71.2944574 175.644486,69.1716217 175.503067,71.294455 C175.361648,73.4172883 176.91727,73.7003322 175.503067,74.6909897 C174.088864,75.6816471 170.411932,79.6442673 171.967557,80.9179687 C173.523181,82.1916701 177.624371,86.2958206 179.038574,84.7390681 C180.452777,83.1823156 181.159869,79.2197002 183.139765,79.5027441 C185.11966,79.7857881 185.402491,79.9273113 185.119648,78.5120891 C184.836805,77.0968669 183.564026,77.0968669 185.261069,76.6722998 C186.958112,76.2477326 187.665214,77.238402 187.099534,75.8231655 C186.533853,74.4079289 186.109592,73.8418554 187.240955,72.28511 C188.372318,70.7283647 188.937998,70.3037976 188.796577,68.7470546 C188.655156,67.1903116 191.907826,53.179601 191.907826,53.179601 C191.907826,53.179601 192.897767,41.2917309 184.695389,42.4239091 Z" id="Shape" fill="#2F2E41"></path>
                <path d="M236.106387,165.785609 C233.327708,165.808045 229.649994,165.352468 228.909679,164.901198 C228.345899,164.557526 228.121228,163.324353 228.046057,162.7554 C227.993998,162.75764 227.963892,162.758605 227.963892,162.758605 C227.963892,162.758605 228.11978,164.745001 228.860093,165.196283 C229.600406,165.647564 233.278129,166.103129 236.056801,166.080694 C236.858893,166.074225 237.135949,165.788642 237.120735,165.365675 C237.009308,165.621221 236.703395,165.780791 236.106387,165.785609 Z" id="Shape" fill="#000000" opacity="0.2"></path>
            </g>
        </g>
    </g>
</svg>